<svg xmlns="http://www.w3.org/2000/svg" version="1.1" xmlns:xlink="http://www.w3.org/1999/xlink" xmlns:svgjs="http://svgjs.dev/svgjs" width="200" height="200" style="border-radius: 10px;"><rect width="200" height="200" fill="white" rx="10" ry="10"></rect><rect width="200" height="200" fill="white" rx="10" ry="10"></rect><line x1="0" y1="25" x2="200" y2="25" opacity="1" stroke-width="0.5" stroke="#f2f2f2"></line><line x1="25" y1="0" x2="25" y2="200" opacity="1" stroke-width="0.5" stroke="#f2f2f2"></line><line x1="0" y1="50" x2="200" y2="50" opacity="1" stroke-width="0.5" stroke="#f2f2f2"></line><line x1="50" y1="0" x2="50" y2="200" opacity="1" stroke-width="0.5" stroke="#f2f2f2"></line><line x1="0" y1="75" x2="200" y2="75" opacity="1" stroke-width="0.5" stroke="#f2f2f2"></line><line x1="75" y1="0" x2="75" y2="200" opacity="1" stroke-width="0.5" stroke="#f2f2f2"></line><line x1="0" y1="100" x2="200" y2="100" opacity="1" stroke-width="0.5" stroke="#f2f2f2"></line><line x1="100" y1="0" x2="100" y2="200" opacity="1" stroke-width="0.5" stroke="#f2f2f2"></line><line x1="0" y1="125" x2="200" y2="125" opacity="1" stroke-width="0.5" stroke="#f2f2f2"></line><line x1="125" y1="0" x2="125" y2="200" opacity="1" stroke-width="0.5" stroke="#f2f2f2"></line><line x1="0" y1="150" x2="200" y2="150" opacity="1" stroke-width="0.5" stroke="#f2f2f2"></line><line x1="150" y1="0" x2="150" y2="200" opacity="1" stroke-width="0.5" stroke="#f2f2f2"></line><line x1="0" y1="175" x2="200" y2="175" opacity="1" stroke-width="0.5" stroke="#f2f2f2"></line><line x1="175" y1="0" x2="175" y2="200" opacity="1" stroke-width="0.5" stroke="#f2f2f2"></line><line x1="-200" y1="200" x2="200" y2="-200" opacity="1" stroke-width="0.5" stroke="#f2f2f2"></line><line x1="-175" y1="200" x2="200" y2="-175" opacity="1" stroke-width="0.5" stroke="#f2f2f2"></line><line x1="-150" y1="200" x2="200" y2="-150" opacity="1" stroke-width="0.5" stroke="#f2f2f2"></line><line x1="-125" y1="200" x2="200" y2="-125" opacity="1" stroke-width="0.5" stroke="#f2f2f2"></line><line x1="-100" y1="200" x2="200" y2="-100" opacity="1" stroke-width="0.5" stroke="#f2f2f2"></line><line x1="-75" y1="200" x2="200" y2="-75" opacity="1" stroke-width="0.5" stroke="#f2f2f2"></line><line x1="-50" y1="200" x2="200" y2="-50" opacity="1" stroke-width="0.5" stroke="#f2f2f2"></line><line x1="-25" y1="200" x2="200" y2="-25" opacity="1" stroke-width="0.5" stroke="#f2f2f2"></line><line x1="0" y1="200" x2="200" y2="0" opacity="1" stroke-width="0.5" stroke="#f2f2f2"></line><line x1="25" y1="200" x2="200" y2="25" opacity="1" stroke-width="0.5" stroke="#f2f2f2"></line><line x1="50" y1="200" x2="200" y2="50" opacity="1" stroke-width="0.5" stroke="#f2f2f2"></line><line x1="75" y1="200" x2="200" y2="75" opacity="1" stroke-width="0.5" stroke="#f2f2f2"></line><line x1="100" y1="200" x2="200" y2="100" opacity="1" stroke-width="0.5" stroke="#f2f2f2"></line><line x1="125" y1="200" x2="200" y2="125" opacity="1" stroke-width="0.5" stroke="#f2f2f2"></line><line x1="150" y1="200" x2="200" y2="150" opacity="1" stroke-width="0.5" stroke="#f2f2f2"></line><line x1="175" y1="200" x2="200" y2="175" opacity="1" stroke-width="0.5" stroke="#f2f2f2"></line><line x1="200" y1="200" x2="200" y2="200" opacity="1" stroke-width="0.5" stroke="#f2f2f2"></line><line x1="225" y1="200" x2="200" y2="225" opacity="1" stroke-width="0.5" stroke="#f2f2f2"></line><line x1="250" y1="200" x2="200" y2="250" opacity="1" stroke-width="0.5" stroke="#f2f2f2"></line><line x1="275" y1="200" x2="200" y2="275" opacity="1" stroke-width="0.5" stroke="#f2f2f2"></line><line x1="300" y1="200" x2="200" y2="300" opacity="1" stroke-width="0.5" stroke="#f2f2f2"></line><line x1="325" y1="200" x2="200" y2="325" opacity="1" stroke-width="0.5" stroke="#f2f2f2"></line><line x1="350" y1="200" x2="200" y2="350" opacity="1" stroke-width="0.5" stroke="#f2f2f2"></line><line x1="375" y1="200" x2="200" y2="375" opacity="1" stroke-width="0.5" stroke="#f2f2f2"></line><line x1="400" y1="200" x2="200" y2="400" opacity="1" stroke-width="0.5" stroke="#f2f2f2"></line><line x1="0" y1="100" x2="200" y2="100" opacity="1" stroke-width="0.75" stroke="#ededed"></line><line x1="100" y1="0" x2="100" y2="200" opacity="1" stroke-width="0.75" stroke="#ededed"></line><line x1="0" y1="200" x2="200" y2="0" opacity="1" stroke-width="0.75" stroke="#ededed"></line><line x1="25" y1="75" x2="75" y2="25" opacity="0.5" stroke="#4287f5"></line><line x1="25" y1="175" x2="75" y2="125" opacity="0.5" stroke="#4287f5"></line><line x1="125" y1="75" x2="175" y2="25" opacity="0.5" stroke="#4287f5"></line><line x1="125" y1="175" x2="175" y2="125" opacity="0.5" stroke="#4287f5"></line><line x1="25" y1="75" x2="25" y2="175" opacity="0.5" stroke="#4287f5"></line><line x1="75" y1="25" x2="75" y2="125" opacity="0.5" stroke="#4287f5"></line><line x1="125" y1="75" x2="125" y2="175" opacity="0.5" stroke="#4287f5"></line><line x1="175" y1="25" x2="175" y2="125" opacity="0.5" stroke="#4287f5"></line><line x1="25" y1="75" x2="125" y2="75" opacity="0.5" stroke="#4287f5"></line><line x1="75" y1="25" x2="175" y2="25" opacity="0.5" stroke="#4287f5"></line><line x1="25" y1="175" x2="125" y2="175" opacity="0.5" stroke="#4287f5"></line><line x1="75" y1="125" x2="175" y2="125" opacity="0.5" stroke="#4287f5"></line><polygon points="75,25 75,125 25,175 25,75" opacity="0.075" fill="#4287f5"></polygon><polygon points="175,25 175,125 125,175 125,75" opacity="0.075" fill="#4287f5"></polygon><polygon points="75,25 175,25 125,75 25,75" opacity="0.075" fill="#4287f5"></polygon><polygon points="75,125 175,125 125,175 25,175" opacity="0.075" fill="#4287f5"></polygon><polygon points="25,175 125,175 125,75 25,75" opacity="0.075" fill="#4287f5"></polygon><polygon points="75,125 175,125 175,25 75,25" opacity="0.075" fill="#4287f5"></polygon></svg>